HIERARCHY
ROOT hip
{
  OFFSET 0 0 0
  CHANNELS 6 Xposition Yposition Zposition Zrotation Yrotation Xrotation
  JOINT abdomen
  {
    OFFSET 0 20.6881 -0.73152
    CHANNELS 3 Zrotation Xrotation Yrotation
    JOINT chest
    {
      OFFSET 0 11.7043 -0.48768
      CHANNELS 3 Zrotation Xrotation Yrotation
      JOINT neck
      {
        OFFSET 0 22.1894 -2.19456
        CHANNELS 3 Zrotation Xrotation Yrotation
        JOINT head
        {
          OFFSET -0.24384 7.07133 1.2192
          CHANNELS 3 Zrotation Xrotation Yrotation
          JOINT leftEye
          {
            OFFSET 4.14528 8.04674 8.04672
            CHANNELS 3 Zrotation Xrotation Yrotation
            End Site
            {
              OFFSET 1 0 0
            }
          }
          JOINT rightEye
          {
            OFFSET -3.6576 8.04674 8.04672
            CHANNELS 3 Zrotation Xrotation Yrotation
            End Site
            {
              OFFSET 1 0 0
            }
          }
        }
      }
      JOINT rCollar
      {
        OFFSET -2.68224 19.2634 -4.8768
        CHANNELS 3 Zrotation Xrotation Yrotation
        JOINT rShldr
        {
          OFFSET -8.77824 -1.95073 1.46304
          CHANNELS 3 Zrotation Xrotation Yrotation
          JOINT rForeArm
          {
            OFFSET -28.1742 -1.7115 0.48768
            CHANNELS 3 Zrotation Xrotation Yrotation
            JOINT rHand
            {
              OFFSET -22.5879 0.773209 7.07136
              CHANNELS 3 Zrotation Xrotation Yrotation
              JOINT rThumb1
              {
                OFFSET -1.2192 -0.487915 3.41376
                CHANNELS 3 Zrotation Xrotation Yrotation
                JOINT rThumb2
                {
                  OFFSET -3.37035 -0.52449 3.41376
                  CHANNELS 3 Zrotation Xrotation Yrotation
                  End Site
                  {
                    OFFSET -1.78271 -1.18214 1.43049
                  }
                }
              }
              JOINT rIndex1
              {
                OFFSET -7.75947 0.938293 5.60832
                CHANNELS 3 Zrotation Xrotation Yrotation
                JOINT rIndex2
                {
                  OFFSET -2.54057 -0.884171 1.56538
                  CHANNELS 3 Zrotation Xrotation Yrotation
                  End Site
                  {
                    OFFSET -1.62519 -0.234802 1.16502
                  }
                }
              }
              JOINT rMid1
              {
                OFFSET -8.24714 1.18213 3.41376
                CHANNELS 3 Zrotation Xrotation Yrotation
                JOINT rMid2
                {
                  OFFSET -3.10165 -0.590103 1.0647
                  CHANNELS 3 Zrotation Xrotation Yrotation
                  End Site
                  {
                    OFFSET -2.48547 -0.328903 0.83742
                  }
                }
              }
              JOINT rRing1
              {
                OFFSET -8.82822 0.546677 1.51678
                CHANNELS 3 Zrotation Xrotation Yrotation
                JOINT rRing2
                {
                  OFFSET -2.60934 -0.819778 -0.0198488
                  CHANNELS 3 Zrotation Xrotation Yrotation
                  End Site
                  {
                    OFFSET -2.33842 -0.294052 0.168128
                  }
                }
              }
              JOINT rPinky1
              {
                OFFSET -8.27202 -0.0477905 -0.4584
                CHANNELS 3 Zrotation Xrotation Yrotation
                JOINT rPinky2
                {
                  OFFSET -1.82734 -0.647385 -0.700984
                  CHANNELS 3 Zrotation Xrotation Yrotation
                  End Site
                  {
                    OFFSET -1.69225 -0.51767 -0.607171
                  }
                }
              }
            }
          }
        }
      }
      JOINT lCollar
      {
        OFFSET 2.68224 19.2634 -4.8768
        CHANNELS 3 Zrotation Xrotation Yrotation
        JOINT lShldr
        {
          OFFSET 8.77824 -1.95073 1.46304
          CHANNELS 3 Zrotation Xrotation Yrotation
          JOINT lForeArm
          {
            OFFSET 28.1742 -1.7115 0.48768
            CHANNELS 3 Zrotation Xrotation Yrotation
            JOINT lHand
            {
              OFFSET 22.5879 0.773209 7.07136
              CHANNELS 3 Zrotation Xrotation Yrotation
              JOINT lThumb1
              {
                OFFSET 1.2192 -0.487915 3.41376
                CHANNELS 3 Zrotation Xrotation Yrotation
                JOINT lThumb2
                {
                  OFFSET 3.37035 -0.52449 3.41376
                  CHANNELS 3 Zrotation Xrotation Yrotation
                  End Site
                  {
                    OFFSET 1.78271 -1.18214 1.43049
                  }
                }
              }
              JOINT lIndex1
              {
                OFFSET 7.75947 0.938293 5.60832
                CHANNELS 3 Zrotation Xrotation Yrotation
                JOINT lIndex2
                {
                  OFFSET 2.54057 -0.884171 1.56538
                  CHANNELS 3 Zrotation Xrotation Yrotation
                  End Site
                  {
                    OFFSET 1.62519 -0.234802 1.16502
                  }
                }
              }
              JOINT lMid1
              {
                OFFSET 8.24714 1.18213 3.41376
                CHANNELS 3 Zrotation Xrotation Yrotation
                JOINT lMid2
                {
                  OFFSET 3.10165 -0.590103 1.0647
                  CHANNELS 3 Zrotation Xrotation Yrotation
                  End Site
                  {
                    OFFSET 2.48547 -0.328903 0.83742
                  }
                }
              }
              JOINT lRing1
              {
                OFFSET 8.82822 0.546677 1.51678
                CHANNELS 3 Zrotation Xrotation Yrotation
                JOINT lRing2
                {
                  OFFSET 2.60934 -0.819778 -0.0198488
                  CHANNELS 3 Zrotation Xrotation Yrotation
                  End Site
                  {
                    OFFSET 2.33842 -0.294052 0.168128
                  }
                }
              }
              JOINT lPinky1
              {
                OFFSET 8.27202 -0.0477905 -0.4584
                CHANNELS 3 Zrotation Xrotation Yrotation
                JOINT lPinky2
                {
                  OFFSET 1.82734 -0.647385 -0.700984
                  CHANNELS 3 Zrotation Xrotation Yrotation
                  End Site
                  {
                    OFFSET 1.69225 -0.51767 -0.607171
                  }
                }
              }
            }
          }
        }
      }
    }
  }
  JOINT rButtock
  {
    OFFSET -8.77824 4.35084 1.2192
    CHANNELS 3 Zrotation Xrotation Yrotation
    JOINT rThigh
    {
      OFFSET 0 -1.70687 -2.19456
      CHANNELS 3 Zrotation Xrotation Yrotation
      JOINT rShin
      {
        OFFSET 0 -36.8199 0.73152
        CHANNELS 3 Zrotation Xrotation Yrotation
        JOINT rFoot
        {
          OFFSET 0.73152 -45.1104 -5.12064
          CHANNELS 3 Zrotation Xrotation Yrotation
          End Site
          {
            OFFSET -1.1221 -3.69964 12.103
          }
        }
      }
    }
  }
  JOINT lButtock
  {
    OFFSET 8.77824 4.35084 1.2192
    CHANNELS 3 Zrotation Xrotation Yrotation
    JOINT lThigh
    {
      OFFSET 0 -1.70687 -2.19456
      CHANNELS 3 Zrotation Xrotation Yrotation
      JOINT lShin
      {
        OFFSET 0 -36.8199 0.73152
        CHANNELS 3 Zrotation Xrotation Yrotation
        JOINT lFoot
        {
          OFFSET -0.73152 -45.1104 -5.12064
          CHANNELS 3 Zrotation Xrotation Yrotation
          End Site
          {
            OFFSET 1.1221 -3.69964 12.103
          }
        }
      }
    }
  }
}
MOTION
Frames:	4
Frame Time:	0.03333
0.016063183546066284 -0.16428713500499725 0.03212917968630791 -16.231306046247482 -5.477777905762196 -1.6732022166252136 -0.4257963225245476 10.174364447593689 4.307704791426659 0.27142077684402466 -8.15895326435566 2.0441425032913685 -3.569503203034401 10.826571732759476 -2.456202059984207 8.660334572196007 -19.11571204662323 -4.866044148802757 0.29524868354201317 1.8598433956503868 -0.534844882786274 -0.30934595502913 0.8852352574467659 0.8472501486539841 -1.588730737566948 -1.2075459212064743 0.7543687708675861 33.03812026977539 21.709695160388947 7.830450385808945 -21.21963679790497 -22.008058726787567 49.12862777709961 -1.9010619074106216 -6.279180720448494 -2.9574908316135406 0.16453671734780073 0.17988678999245167 2.2647935897111893 0.7415934093296528 0.5802673799917102 -1.1492635309696198 0.1567430980503559 0.5377285927534103 1.4261379092931747 5.880099534988403 3.2233446836471558 0.27139940299093723 0.02010231837630272 0.20872615277767181 1.0846538096666336 2.036024797707796 2.7578530088067055 -0.6461471691727638 -2.0173752307891846 2.6883868128061295 -0.4785027354955673 7.3335738480091095 0.7158668339252472 -1.7035522498190403 -1.1310892179608345 0.6162132136523724 -0.20733184413984418 1.788777932524681 -1.5761572122573853 -2.9661547020077705 -1.0375119745731354 1.4756132662296295 -0.3025595471262932 -43.25222164392471 20.759422034025192 -21.178671419620514 17.929502427577972 -16.136676371097565 -44.97995853424072 1.7423800751566887 -9.986794888973236 1.8250968866050243 -1.5344186872243881 -0.10111781302839518 -0.013752439990639687 0.9889725409448147 -1.9680678471922874 -0.45218054205179214 -0.977538451552391 0.8439669571816921 0.450084563344717 -7.257028296589851 3.90684362500906 -0.6841484131291509 -0.5556370317935944 0.2710816450417042 -0.8992595225572586 -3.1115542352199554 0.38297468796372414 -1.6411989368498325 -1.885446086525917 1.5219256281852722 0.16660017427057028 -9.892222881317139 1.2677781097590923 -0.8308754302561283 -1.5531477145850658 -0.3501445334404707 0.14714984223246574 -3.6814502254128456 1.21556019410491 0.9661747701466084 0.48017479944974184 -0.11392462765797973 -0.6648780405521393 -25.319245755672455 -24.5356947183609 -19.7021421790123 -14.490968137979507 47.665327191352844 19.06204104423523 -5.043536983430386 -9.333683028817177 -7.074178755283356 -1.5967005863785744 -1.3972096145153046 0.655685942620039 28.70574116706848 -26.881337463855743 23.658577501773834 19.16219875216484 45.63950836658478 -12.792148143053055 6.40388198196888 -9.918177947402 9.939736872911453
0.01762286387383938 -0.5174992084503174 0.1081930585205555 -20.12493208050728 -4.640671536326408 2.2194354236125946 -2.85122774541378 13.672058880329132 5.028212517499924 2.251535765826702 -9.680732041597366 1.13126490265131 -5.74532724916935 15.29177650809288 -2.6967990584671497 9.113032445311546 -25.060994625091553 -4.964808113873005 -0.23238424211740494 0.2882757782936096 -0.47220884822309017 -0.4563241358846426 -0.6982199102640152 0.5835802014917135 -0.4860256612300873 -0.23869581520557404 0.09965144097805023 44.44559544324875 28.512074947357178 13.162105232477188 -23.746162354946136 -28.763403296470642 63.06732773780823 -4.787984490394592 -11.183156669139862 -4.952646642923355 -0.2746739611029625 0.8297556079924107 -0.3843183070421219 -0.8043002709746361 0.19086197018623352 -0.5630910582840443 -0.1908487267792225 -0.6866921111941338 -0.19535735249519348 6.7851244658231735 5.661802589893341 -0.3567887004464865 0.5242709442973137 0.32360206358134747 -0.08856084197759628 2.735176607966423 2.0034371316432953 0.2867620065808296 0.0946209579706192 1.599419005215168 0.5530691519379616 9.38377931714058 0.5006390903145075 -1.161840744316578 0.6105472147464752 0.14119952917099 0.23763653123751283 2.479657307267189 -1.2684545293450356 -1.5230990946292877 -0.3065432980656624 0.1865258440375328 -0.938009899109602 -56.914801597595215 27.85580277442932 -24.16696071624756 22.541206777095795 -23.97144913673401 -56.74980819225311 3.3614378795027733 -9.686575904488564 2.9601100087165833 -0.7011539116501808 -0.027420558035373688 0.16144366934895515 0.18000639975070953 -0.3463207930326462 1.1232038587331772 0.22159069776535034 -0.22640224546194077 -0.12457100674510002 -7.447740733623505 4.864027127623558 -0.4549611546099186 0.48672471195459366 -0.4801216162741184 0.7538221031427383 -3.4250501543283463 1.1996801756322384 -1.0496100783348083 -0.5430541187524796 0.8060743845999241 -0.12838364113122225 -10.105805173516273 0.27777157723903656 0.07113302126526833 -0.1916438341140747 -0.25677625089883804 -0.4559565894305706 -2.457708790898323 0.5359368771314621 1.1859464272856712 0.500140325166285 -0.5324184894561768 0.5273085460066795 -32.21945106983185 -32.144008576869965 -28.312585651874542 -21.45877316594124 60.50699830055237 21.26127541065216 -4.803473241627216 -9.409421235322952 -9.805820882320404 -0.3650064021348953 0.3284458816051483 -0.5438686721026897 38.808833956718445 -31.1872136592865 34.05691713094711 23.52121889591217 58.75190556049347 -22.006716281175613 6.115922033786774 -11.678013503551483 14.257558286190033
0.02750297077000141 -1.0054303407669067 0.1845991499722004 -32.49724745750427 -10.06254181265831 -0.627158135175705 -3.1991511583328247 13.825289458036423 4.997165277600288 2.83296424895525 -9.413729533553123 0.19379295408725739 -4.930441975593567 17.433708161115646 -2.605992369353771 9.30880218744278 -25.12884646654129 -1.9396612420678139 0.936271995306015 0.4630894213914871 -1.5378488972783089 0.6537841726094484 -1.1313064768910408 0.2227688580751419 -0.6147385016083717 -0.7684793695807457 -0.09435039013624191 52.66577482223511 32.310892939567566 14.558888375759125 -24.617770314216614 -32.210902869701385 69.66251492500305 -5.59113509953022 -15.910787433385849 -6.347485855221748 0.09004653431475163 0.29527802020311356 -1.4180302619934082 -2.265789359807968 0.429105581715703 -0.837276354432106 -0.2747306227684021 -0.2190355584025383 0.5331634730100632 7.29145310819149 6.042942479252815 0.6276022922247648 1.0908696614205837 -0.020137019455432892 -0.013913288712501526 3.2783356681466103 0.9674758091568947 0.11212103068828583 -0.11358216404914856 0.4350180923938751 0.9448989853262901 9.992326945066452 0.6793871987611055 -0.40749963372945786 0.007383786141872406 0.3069637343287468 -0.1495138113386929 1.865464635193348 -0.8157367072999477 -0.31901121139526367 0.028893761336803436 -0.2230377495288849 -0.40961078368127346 -61.56266212463379 29.954813718795776 -25.26357114315033 23.283671736717224 -26.652410924434662 -60.79558789730072 5.309132672846317 -9.528019800782204 3.6813385784626007 -1.233745738863945 -0.05170050077140331 0.7275878358632326 -0.6343276798725128 0.5605253577232361 0.13006534427404404 -0.5289242416620255 -0.9040318429470062 0.1383119635283947 -7.983595132827759 5.579802095890045 -0.6564287468791008 0.5634482949972153 -2.186010405421257 0.6232545152306557 -2.5170752964913845 0.6476020999252796 -0.02722308039665222 -1.0145492479205132 -0.8827957883477211 0.5709001841023564 -9.893338680267334 0.40404360741376877 0.5146076157689095 -0.2234276756644249 -0.25048211216926575 -0.45416437089443207 -1.7002402245998383 0.39819538593292236 1.3757827039808035 0.42942405212670565 0.7004335708916187 1.2756036221981049 -34.07433271408081 -32.65073150396347 -31.87746673822403 -20.618231892585754 62.66743183135986 17.48198926448822 -5.80071821808815 -11.448099911212921 -10.634746178984642 -0.8342950791120529 0.39344921708106995 0.10866248980164528 47.8166788816452 -35.09067803621292 41.78241401910782 23.36296856403351 65.96056759357452 -25.5172061920166 5.898942053318024 -10.672095268964767 12.683849930763245
0.03638679347932339 -1.272763967514038 0.2947870008647442 -40.9920608997345 -20.064141154289246 -4.648309797048569 -0.6459322571754456 11.251933872699738 5.4674215614795685 2.9543885216116905 -9.09145474433899 0.5862735584378242 -2.9299230873584747 16.35856881737709 -0.6799297593533993 8.089256063103676 -24.70203995704651 2.564336322247982 1.4992312900722027 -0.5345193296670914 -1.331104226410389 1.3964016828686 -0.35528942942619324 1.0154880210757256 -0.8002273365855217 -1.6193820163607597 -1.7297317832708359 61.59515976905823 38.16285878419876 1.0571564733982086 -24.65053617954254 -34.819951951503754 73.44004154205322 -7.684922441840172 -22.832301557064056 -8.526250272989273 -1.165440184995532 -1.0017695277929306 -0.5276515334844589 -1.8529316782951355 0.7764727715402842 -0.7404690608382225 -0.027176644653081894 -0.20886395126581192 1.7018317803740501 7.115461304783821 6.232352703809738 0.9909110236912966 1.3135552033782005 -0.2914878912270069 0.4668428376317024 2.9727596417069435 0.5614527314901352 -0.16784995794296265 -1.9446250051259995 -0.5799619853496552 0.28662219643592834 9.694715738296509 0.9105376247316599 -0.9405812993645668 -0.2635575458407402 0.2173437550663948 1.1549989320337772 1.9803252071142197 -1.2740201130509377 0.6058553606271744 -0.7941232994198799 -1.0218917950987816 -0.7900034263730049 -57.94417977333069 24.814810752868652 -28.873947858810425 21.671995371580124 -23.93260270357132 -57.20532238483429 7.620474994182587 -6.428048014640808 3.0912338197231293 -1.4832193404436111 -0.3481244947761297 -0.16308149322867393 -0.629943273961544 -1.509672962129116 -1.9189566001296043 -1.1550061404705048 0.02565566450357437 -0.10999755933880806 -7.853203564882278 5.622973591089249 -0.7552483677864075 0.2384326234459877 -1.401839442551136 -0.12922480702400208 -2.169129252433777 1.4568688161671162 -0.39244238287210464 -1.5785229206085205 -0.6603015214204788 0.8554367534816265 -9.992894232273102 0.6457498669624329 0.8820270001888275 -1.0997362062335014 0.5569343827664852 0.018636658787727356 -0.8497124165296555 -0.008635036647319794 1.3268938288092613 0.6357249850407243 1.521142590790987 1.0683158040046692 -29.80851799249649 -26.6705185174942 -27.23969131708145 -12.058327943086624 60.42688608169556 13.327758461236954 -7.883936986327171 -14.893760830163956 -14.655333906412125 -1.4185408875346184 0.3989041596651077 1.0036681964993477 63.06949496269226 -40.968634486198425 54.99637305736542 28.466010689735413 70.96808552742004 -29.006473124027252 4.81747604906559 -8.923703357577324 6.424103155732155
